<?xml version="1.0" standalone="no"?><!DOCTYPE svg PUBLIC "-//W3C//DTD SVG 1.1//EN" "http://www.w3.org/Graphics/SVG/1.1/DTD/svg11.dtd"><svg t="1690725853295" class="icon" viewBox="0 0 1024 1024" version="1.1" xmlns="http://www.w3.org/2000/svg" p-id="11084" xmlns:xlink="http://www.w3.org/1999/xlink" width="64" height="64"><path d="M981.636 142.526L809.902 113.92c-11.586-1.936-26.824-2.906-42.066-2.906-15.238 0-30.48 0.968-42.036 2.906l-171.734 28.606c-11.586 1.936-26.826 2.936-42.066 2.936s-30.48-1-42.036-2.936L298.23 113.92c-11.586-1.936-26.826-2.906-42.066-2.906s-30.48 0.968-42.036 2.906L42.394 142.526C19.252 146.4 0.328 168.76 0.328 192.182v682.266c0 21.11 15.334 36.226 35.258 36.226 2.216 0 4.498-0.188 6.808-0.562l171.734-28.668c11.554-1.938 26.794-2.876 42.036-2.876s30.48 0.938 42.066 2.876l171.734 28.668c11.554 1.938 26.794 2.872 42.036 2.872s30.48-0.934 42.066-2.872l171.734-28.668c11.554-1.938 26.796-2.876 42.036-2.876 15.242 0 30.48 0.938 42.066 2.876l171.734 28.668c2.312 0.376 4.558 0.562 6.808 0.562 19.926 0 35.226-15.118 35.226-36.226V192.182c0.002-23.422-18.924-45.782-42.034-49.656z" fill="#11b4da" p-id="11085" data-spm-anchor-id="a313x.7781069.0.i12" class="selected"></path><path d="M135.46 574.704l-14.396-40.118c1.28-0.496 32.416-11.618 83.728-24.67l10.524 41.366c-49.156 12.492-79.574 23.296-79.856 23.422zM251.198 542.644l-9.338-41.598c50.406-11.336 100.998-19.8 150.31-25.078l4.56 42.378c-47.72 5.122-96.688 13.306-145.532 24.298z m511.08-1.218c-48.406-11.086-97.282-19.208-145.344-24.046l4.308-42.44c49.782 5.06 100.438 13.43 150.592 24.922l-9.556 41.564z m-328.852-26.45l-3.248-42.504c27.794-2.092 55.278-3.154 81.822-3.154 23.266 0 47.218 0.812 71.142 2.436l-2.874 42.536a1010.89 1010.89 0 0 0-68.27-2.312c-25.45 0-51.902 0.998-78.572 2.998z" fill="#434A54" p-id="11086"></path><path d="M932.168 582.2l-27.574-27.61 27.574-27.558a21.276 21.276 0 0 0 6.246-15.054 21.318 21.318 0 0 0-21.328-21.33c-5.902 0-11.212 2.404-15.086 6.246l-27.542 27.576-27.578-27.576a21.28 21.28 0 0 0-15.082-6.246c-11.776 0-21.3 9.526-21.3 21.33a21.16 21.16 0 0 0 6.246 15.054l27.544 27.558-27.546 27.61a21.08 21.08 0 0 0-6.246 15.05c0 11.742 9.526 21.3 21.3 21.3 5.902 0 11.242-2.376 15.082-6.246l27.578-27.546L902 612.304a21.224 21.224 0 0 0 15.086 6.246c11.774 0 21.328-9.558 21.328-21.3a21.2 21.2 0 0 0-6.246-15.05z" fill="#ED5564" p-id="11087"></path><path d="M214.128 113.92L42.394 142.526C19.252 146.4 0.328 168.76 0.328 192.182v682.266c0 21.11 15.334 36.226 35.258 36.226 2.216 0 4.498-0.188 6.808-0.562l171.734-28.668c11.554-1.938 26.794-2.876 42.036-2.876V111.014c-15.24 0-30.48 0.97-42.036 2.906zM725.8 113.92l-171.734 28.606c-11.586 1.936-26.826 2.936-42.066 2.936v767.522c15.24 0 30.48-0.934 42.066-2.872l171.734-28.668c11.554-1.938 26.796-2.876 42.036-2.876V111.014c-15.238 0-30.48 0.97-42.036 2.906z" opacity=".1" p-id="11088" data-spm-anchor-id="a313x.7781069.0.i10" class=""></path></svg>