<?xml version="1.0" standalone="no"?>
<!DOCTYPE svg PUBLIC "-//W3C//DTD SVG 20010904//EN"
 "http://www.w3.org/TR/2001/REC-SVG-20010904/DTD/svg10.dtd">
<svg version="1.0" xmlns="http://www.w3.org/2000/svg"
 width="900.000000pt" height="327.000000pt" viewBox="0 0 900.000000 327.000000"
 preserveAspectRatio="xMidYMid meet">
<g transform="translate(0.000000,327.000000) scale(0.100000,-0.100000)"
fill="#ffffff" stroke="none">
<path d="M5002 2597 c-15 -18 10 -55 41 -59 21 -3 22 -6 19 -98 -2 -52 -5 -96
-7 -99 -9 -9 -17 8 -19 42 -7 79 -31 70 -41 -15 -7 -56 -6 -58 20 -68 15 -6
33 -6 43 -1 9 4 34 11 55 15 33 6 37 5 37 -13 0 -57 58 -18 62 42 2 34 7 42
23 42 28 0 35 13 35 72 0 60 -13 74 -41 44 -23 -25 -54 -27 -67 -5 -5 9 -18
14 -28 12 -15 -3 -18 -11 -16 -38 5 -63 11 -79 35 -82 16 -2 22 -10 22 -27 0
-34 -21 -37 -30 -4 l-7 28 -17 -24 c-23 -30 -27 -22 -35 69 -7 74 -7 75 23
104 31 30 51 28 51 -5 0 -27 46 -26 55 1 5 14 12 19 24 15 10 -3 26 -3 35 1
17 7 22 39 7 49 -5 3 -60 1 -121 -5 -95 -8 -114 -7 -127 5 -18 18 -18 18 -31
2z m219 -148 c29 -15 14 -29 -32 -29 -27 0 -39 4 -39 14 0 24 39 33 71 15z"/>
<path d="M3905 2590 c-3 -5 -15 -10 -25 -10 -21 0 -33 -35 -45 -129 -5 -47 -3
-55 14 -68 26 -18 27 -39 1 -53 -23 -12 -27 -50 -5 -50 8 0 36 10 62 22 l46
22 21 -27 21 -26 33 26 34 26 29 -22 c24 -18 33 -20 45 -11 21 19 17 37 -11
44 -30 8 -33 38 -10 93 8 19 15 42 15 51 0 8 7 24 16 34 19 20 12 25 -41 30
-25 2 -30 8 -30 28 0 18 -5 25 -20 25 -15 0 -21 -9 -25 -35 -4 -19 -12 -45
-18 -57 -16 -30 -15 -39 9 -61 16 -15 20 -29 17 -63 -3 -40 -6 -44 -32 -47
-28 -4 -29 -3 -23 37 5 38 3 42 -21 47 -15 4 -33 11 -39 17 -9 6 -18 5 -28 -3
-15 -13 -45 -7 -45 8 0 5 14 15 30 22 23 10 37 10 55 2 37 -17 75 4 44 24 -6
4 -8 20 -5 40 5 26 2 38 -14 54 -22 22 -45 26 -55 10z m180 -115 c0 -39 -31
-48 -41 -11 -7 30 2 48 24 44 11 -2 17 -13 17 -33z m-135 -100 c0 -8 -9 -15
-20 -15 -11 0 -20 7 -20 15 0 8 9 15 20 15 11 0 20 -7 20 -15z"/>
<path d="M4250 2573 c0 -14 -7 -35 -17 -45 -15 -17 -15 -19 3 -39 18 -20 18
-22 1 -52 -17 -28 -17 -32 -3 -43 20 -14 21 -53 1 -60 -17 -7 -20 -30 -5 -39
5 -3 32 -3 60 1 49 6 50 7 50 40 0 38 -14 44 -30 14 -6 -11 -15 -18 -21 -15
-15 10 -10 67 7 87 14 14 15 20 4 33 -10 12 -10 21 -1 42 8 18 9 29 1 37 -5 5
-10 23 -10 38 0 21 -5 28 -20 28 -15 0 -20 -7 -20 -27z"/>
<path d="M4415 2591 c-63 -6 -70 -8 -75 -31 -10 -38 1 -162 16 -192 8 -15 14
-40 14 -56 0 -38 9 -46 31 -26 12 11 28 14 46 11 72 -14 68 -16 71 41 3 50 2
52 -22 52 -19 0 -26 5 -26 20 0 16 5 19 24 14 27 -6 44 12 28 28 -8 8 -16 7
-27 -2 -10 -9 -19 -10 -26 -3 -14 14 0 43 27 54 20 7 24 16 24 48 0 26 -5 41
-16 45 -9 3 -16 5 -17 4 -1 -1 -33 -4 -72 -7z m56 -57 c17 -10 9 -24 -15 -24
-41 0 -58 -10 -45 -26 6 -8 8 -25 5 -39 -5 -21 0 -32 31 -60 42 -38 37 -59
-13 -53 -23 2 -29 7 -27 25 2 13 -5 27 -16 32 -15 9 -18 21 -17 73 1 35 5 68
9 75 7 12 68 10 88 -3z"/>
<path d="M4726 2574 c-6 -22 -11 -25 -29 -19 -78 26 -112 -5 -58 -51 42 -35
40 -54 -5 -54 -28 0 -35 -3 -32 -17 3 -14 12 -17 38 -15 56 4 66 -4 38 -33
-12 -14 -28 -25 -34 -25 -6 0 -19 -9 -29 -20 -19 -21 -14 -50 8 -50 16 0 71
57 80 83 12 34 27 6 27 -49 0 -47 3 -54 19 -54 29 0 35 17 21 66 -7 25 -10 47
-7 50 3 3 26 -15 50 -40 48 -49 97 -63 97 -28 0 23 -19 42 -41 42 -22 0 -71
39 -63 52 3 5 27 8 52 6 38 -2 47 0 50 15 3 13 -3 17 -26 17 -16 0 -31 3 -35
6 -10 10 15 53 35 59 10 4 18 12 18 19 0 25 -23 35 -66 29 -36 -5 -44 -2 -56
16 -18 29 -44 27 -52 -5z m10 -78 c7 -29 -1 -46 -22 -46 -9 0 -14 11 -14 35 0
41 26 49 36 11z m82 0 c4 -20 -21 -46 -45 -46 -16 0 -17 42 -1 58 17 17 42 11
46 -12z"/>
<path d="M4976 2501 c-7 -11 24 -31 49 -31 10 0 15 7 13 18 -4 19 -52 29 -62
13z"/>
<path d="M784 2457 c-19 -11 -18 -33 2 -41 20 -8 2918 -8 2938 0 22 8 21 44
-1 44 -10 0 -672 1 -1471 3 -799 1 -1460 -2 -1468 -6z"/>
<path d="M5389 2456 c-16 -17 -10 -35 14 -41 12 -3 677 -4 1477 -3 l1455 3 3
23 c2 12 0 22 -5 22 -711 6 -2937 2 -2944 -4z"/>
<path d="M5247 2363 c-14 -13 -6 -43 14 -54 32 -17 46 3 25 35 -17 26 -27 31
-39 19z"/>
<path d="M6041 2039 c-22 -18 -24 -23 -13 -53 7 -18 12 -35 12 -38 0 -6 -82
-11 -313 -21 -62 -2 -83 -17 -66 -48 5 -10 14 -21 19 -24 6 -3 10 -24 10 -45
0 -31 5 -43 25 -56 22 -14 41 -15 176 -5 124 10 154 10 160 -1 12 -18 11 -56
-1 -63 -6 -4 -110 -10 -233 -14 -213 -8 -223 -7 -251 12 -34 23 -61 13 -60
-22 3 -111 4 -111 29 -123 17 -8 28 -8 37 0 23 19 308 52 441 52 47 0 48 -1
45 -27 -3 -27 -6 -28 -93 -41 -49 -7 -124 -11 -166 -8 -72 4 -77 3 -89 -19
-11 -20 -10 -26 4 -40 9 -9 16 -22 16 -29 0 -7 9 -21 20 -31 15 -14 23 -15 33
-6 24 19 228 55 259 45 15 -4 18 -13 16 -37 l-3 -32 -75 -8 c-41 -4 -113 -10
-160 -13 -61 -4 -88 -10 -97 -22 -22 -28 -14 -43 33 -64 40 -17 53 -18 83 -9
76 23 203 41 222 31 21 -12 35 -48 22 -60 -4 -5 -53 -11 -108 -14 -55 -3 -132
-8 -171 -11 -57 -5 -73 -4 -83 9 -8 9 -24 16 -36 16 -20 0 -24 -6 -27 -42 -6
-49 13 -105 37 -114 9 -4 58 1 108 10 116 22 416 38 569 30 131 -7 138 -5 234
72 29 23 58 44 65 46 8 3 10 11 6 22 -8 20 -37 18 -250 -10 -150 -20 -246 -19
-254 2 -16 42 28 62 159 73 81 6 128 31 128 67 0 15 -10 16 -92 9 -171 -15
-173 -15 -176 21 l-3 31 118 7 c188 11 198 15 265 85 l57 62 93 -2 c51 -1 106
3 121 10 16 6 39 11 51 11 13 0 41 13 62 30 67 51 65 49 53 72 -11 20 -17 20
-157 17 -136 -4 -147 -3 -150 14 -2 10 8 36 23 57 26 37 28 80 5 80 -5 0 -28
13 -52 29 -24 16 -63 31 -88 34 -156 20 -263 27 -322 22 -66 -6 -66 -6 -85 25
-19 33 -73 70 -101 70 -9 -1 -28 -10 -41 -21z m144 -151 c41 -20 58 -38 37
-38 -5 0 -23 -22 -40 -49 -50 -76 -52 -77 -105 -31 -63 56 -68 76 -26 111 41
34 74 36 134 7z m362 -104 c3 -8 2 -29 -3 -46 l-9 -32 -125 -3 c-69 -2 -145
-4 -170 -5 l-45 -3 0 35 0 35 80 7 c44 4 109 12 145 16 100 14 120 14 127 -4z
m-389 -96 c20 -20 14 -52 -17 -88 l-30 -35 -22 22 c-25 25 -21 61 11 93 23 23
41 25 58 8z m360 -90 c20 -17 14 -45 -10 -51 -20 -5 -290 -11 -325 -8 -17 1
-17 36 0 49 23 19 312 28 335 10z m-370 -64 c30 -21 29 -64 -3 -94 -30 -28
-50 -21 -75 23 -14 25 -13 28 15 57 33 35 34 35 63 14z m-10 -191 c-4 -36 -38
-45 -38 -10 0 27 7 37 27 37 10 0 13 -9 11 -27z"/>
<path d="M8017 1946 c-20 -15 -20 -19 9 -164 15 -75 32 -114 48 -109 5 2 17
19 28 37 19 37 26 144 9 154 -5 4 -19 26 -31 51 -23 48 -34 53 -63 31z"/>
<path d="M4615 1920 c-16 -4 -66 -8 -110 -9 -44 -1 -109 -6 -145 -12 -36 -6
-97 -14 -135 -18 -39 -4 -80 -13 -92 -19 -31 -17 -90 -15 -119 5 -23 15 -28
15 -58 1 -32 -16 -33 -19 -49 -117 -14 -84 -17 -180 -17 -595 0 -444 2 -499
17 -531 18 -38 28 -42 52 -22 36 30 122 39 428 43 459 7 526 9 549 22 11 6 44
14 72 18 29 4 55 11 58 15 3 5 14 9 24 9 29 0 90 32 90 47 0 8 8 28 18 46 15
29 17 69 18 387 1 406 8 565 30 597 8 12 14 29 14 37 0 20 -50 46 -86 44 -27
-1 -47 3 -159 30 -121 30 -326 41 -400 22z m-550 -189 c3 -5 -6 -22 -19 -38
-21 -24 -25 -26 -31 -11 -13 33 32 78 50 49z m815 -32 c58 0 122 -6 144 -12
l38 -11 -6 -120 c-20 -356 -26 -656 -14 -719 11 -61 -1 -64 -267 -71 -306 -7
-645 -30 -671 -44 -18 -9 -24 -9 -34 3 -10 12 -9 23 6 57 17 39 18 77 19 438
0 379 1 396 20 422 18 25 26 27 85 28 36 0 94 5 130 11 82 14 329 28 395 23
28 -2 97 -5 155 -5z"/>
<path d="M4710 1565 c-11 -13 -37 -15 -140 -14 l-127 1 -69 -43 c-38 -23 -80
-45 -94 -49 -25 -6 -37 -37 -26 -66 4 -11 15 -9 53 12 26 15 55 33 63 40 9 7
41 25 72 39 45 20 61 23 82 15 14 -5 26 -16 26 -24 0 -21 -75 -56 -123 -56
-36 -1 -45 -5 -62 -32 -13 -21 -40 -40 -81 -57 -92 -39 -121 -67 -128 -123 -5
-45 -4 -48 17 -48 13 0 32 7 43 15 10 8 31 15 45 15 45 0 107 34 153 83 24 26
50 47 58 46 7 0 36 -13 63 -29 66 -39 113 -60 150 -67 17 -4 39 -12 50 -19 34
-21 116 -27 145 -10 14 9 32 18 40 22 8 3 23 17 34 31 17 23 17 26 3 41 -20
19 -77 40 -142 52 -27 5 -81 14 -120 20 -103 18 -100 17 -83 42 8 12 30 26 49
31 19 5 38 13 44 18 5 5 19 9 31 9 25 0 64 43 64 70 0 19 -40 50 -63 50 -8 0
-20 -7 -27 -15z"/>
<path d="M4418 1168 c-16 -5 -28 -15 -28 -22 0 -7 32 -39 72 -71 l72 -57 23
28 c46 58 28 93 -62 121 -46 15 -42 14 -77 1z"/>
<path d="M4443 990 c-13 -5 -23 -14 -23 -20 0 -22 45 -90 64 -96 23 -8 32 2
45 51 10 36 9 42 -10 58 -23 19 -42 20 -76 7z"/>
<path d="M3093 1912 c-8 -5 -13 -44 -15 -112 l-3 -105 -70 -7 c-158 -16 -222
-26 -243 -37 -18 -10 -27 -8 -51 10 -21 16 -37 20 -56 15 -25 -6 -27 -10 -21
-44 4 -20 10 -61 14 -89 11 -71 58 -106 94 -70 25 25 253 58 533 76 168 11
207 24 279 87 l57 52 -28 22 c-27 21 -34 21 -153 15 -69 -4 -147 -11 -174 -16
-27 -5 -61 -9 -77 -9 l-27 0 5 73 c9 113 -17 169 -64 139z"/>
<path d="M1120 1825 c-14 -25 -5 -47 28 -68 16 -11 15 -32 -3 -47 -21 -17 -19
-43 5 -65 18 -16 19 -27 13 -144 -4 -88 -1 -175 11 -288 10 -89 15 -166 12
-172 -3 -5 -104 -8 -235 -7 l-228 1 -28 33 c-33 39 -75 45 -75 10 0 -13 12
-46 27 -75 24 -45 26 -54 14 -76 -10 -18 -10 -30 -2 -45 6 -11 11 -34 11 -51
0 -25 5 -32 27 -37 20 -5 30 -2 43 13 32 40 70 51 183 52 78 0 116 5 139 17
27 14 60 15 242 11 141 -3 238 -11 291 -22 128 -26 203 -35 315 -38 98 -2 107
0 138 23 18 13 35 35 38 47 4 13 14 27 23 32 13 8 16 24 13 87 -1 43 -3 78 -5
79 -5 3 -269 -15 -347 -25 -88 -10 -520 -30 -531 -24 -10 5 29 167 54 224 13
30 23 113 38 322 l12 157 -39 35 c-22 20 -54 39 -72 42 -18 3 -35 10 -38 15
-12 20 -61 9 -74 -16z m825 -865 c16 -18 16 -20 1 -26 -29 -11 -126 0 -126 15
0 35 96 43 125 11z"/>
<path d="M7314 1827 c-12 -6 -40 -34 -62 -62 -22 -27 -78 -90 -125 -139 -80
-83 -107 -131 -91 -157 11 -18 31 -8 84 46 41 42 57 52 67 43 7 -6 13 -20 13
-31 0 -11 7 -28 16 -38 17 -19 6 -22 143 44 36 18 36 34 -1 57 -27 17 -43 19
-85 14 -45 -5 -53 -4 -53 10 0 19 81 106 98 106 6 0 17 -8 24 -17 12 -16 73
-63 116 -88 9 -6 36 -23 59 -38 50 -32 60 -33 92 -7 21 18 22 23 11 50 -11 27
-54 67 -90 83 -8 4 -28 16 -45 27 -36 24 -42 27 -77 34 -20 5 -30 15 -36 39
-9 36 -26 43 -58 24z"/>
<path d="M1400 1660 c0 -22 6 -56 14 -74 7 -18 17 -52 21 -74 4 -23 11 -44 16
-48 5 -3 9 -16 9 -28 0 -13 7 -29 15 -36 8 -7 15 -21 15 -31 0 -10 9 -34 21
-53 27 -46 64 -50 72 -8 3 16 17 40 31 53 14 13 26 32 26 42 0 24 33 85 64
121 15 16 26 41 26 57 0 17 9 35 25 47 14 11 25 24 25 29 0 6 -69 9 -166 9
-147 -1 -167 1 -178 17 -22 29 -36 20 -36 -23z"/>
<path d="M8155 1654 c-33 -7 -118 -13 -190 -14 -71 0 -147 -5 -169 -11 -27 -8
-41 -8 -49 0 -6 6 -19 11 -29 11 -16 0 -18 -11 -18 -125 0 -91 4 -135 16 -165
19 -47 31 -49 69 -15 26 25 27 29 23 108 l-3 82 60 8 c91 11 277 28 305 27 14
-1 32 -2 40 -2 8 -1 32 2 53 6 35 6 37 5 37 -18 0 -14 -5 -28 -10 -31 -8 -5
-7 -11 1 -21 23 -27 159 9 159 42 0 6 9 21 20 34 26 30 25 58 -2 69 -93 35
-203 40 -313 15z"/>
<path d="M2230 1653 c-23 -8 -50 -46 -50 -71 0 -21 19 -48 110 -154 l25 -29
30 29 c17 16 41 35 53 41 13 7 30 28 38 47 8 19 21 34 29 34 19 0 28 16 20 40
-6 18 -15 20 -85 20 -43 0 -81 4 -85 9 -4 8 -66 43 -69 40 -1 0 -8 -3 -16 -6z"/>
<path d="M7315 1448 c-22 -6 -92 -13 -155 -17 l-115 -6 -3 -27 c-2 -16 1 -28
6 -28 21 0 52 -71 52 -119 0 -26 7 -69 16 -94 19 -55 14 -74 -21 -87 -27 -10
-34 -43 -12 -57 37 -24 46 -88 25 -198 -10 -55 -9 -72 8 -129 21 -74 39 -84
73 -41 15 20 32 27 73 31 29 3 77 14 105 25 94 33 115 57 72 80 -23 12 -61 9
-159 -15 -92 -22 -92 -22 -88 21 3 42 5 43 156 63 86 11 92 14 92 46 0 23 -2
24 -71 24 -45 0 -84 -6 -105 -16 -54 -26 -77 -5 -55 49 7 20 99 56 143 57 61
0 122 49 102 81 -9 15 -155 5 -201 -13 -25 -9 -34 -9 -47 1 -33 28 -4 81 43
81 12 0 34 6 49 14 15 8 49 15 76 17 49 4 50 3 58 -29 8 -30 12 -33 41 -30 61
6 93 118 70 252 -5 33 -12 41 -47 57 -45 20 -116 23 -181 7z m113 -100 c7 -7
12 -29 12 -50 0 -44 -19 -57 -54 -39 -18 10 -39 9 -105 -4 -72 -15 -85 -15
-97 -3 -11 11 -12 21 -5 40 8 22 20 27 93 42 46 9 94 18 108 20 14 2 27 4 31
5 3 0 10 -4 17 -11z"/>
<path d="M7875 1388 c-5 -16 -5 -34 -8 -243 -2 -93 -7 -214 -11 -267 -10 -110
-1 -146 44 -178 34 -24 56 -25 103 -5 22 9 68 15 114 15 111 0 117 6 132 127
11 86 11 102 -3 136 l-16 37 -75 0 c-41 0 -97 -5 -126 -11 -62 -13 -86 1 -75
46 8 32 34 42 133 51 80 7 153 34 153 57 0 7 14 34 30 60 17 26 30 57 30 68 0
12 8 34 18 51 17 29 17 30 -7 49 -21 17 -41 19 -227 19 -155 0 -206 -3 -209
-12z m333 -128 c2 -29 -1 -57 -5 -61 -11 -11 -230 -30 -250 -22 -17 7 -27 46
-20 76 10 37 62 56 162 60 50 1 95 2 100 2 6 -1 11 -25 13 -55z m-40 -332 c13
-13 16 -116 4 -134 -6 -10 -117 -26 -197 -28 l-30 -1 3 55 c4 91 6 95 59 107
68 15 147 15 161 1z"/>
<path d="M2927 1301 c-20 -39 -41 -78 -46 -88 -5 -10 -12 -26 -15 -37 -5 -15
-13 -17 -49 -13 -23 3 -54 8 -68 12 -24 6 -28 4 -34 -26 -8 -34 -4 -40 53 -79
20 -14 21 -17 8 -40 -35 -63 -56 -108 -56 -121 0 -8 -7 -25 -16 -37 -14 -20
-13 -24 3 -46 27 -36 70 -56 121 -56 28 0 52 -6 64 -17 16 -14 22 -14 43 -3
20 11 35 11 82 1 32 -7 73 -19 91 -27 18 -8 40 -14 50 -14 9 0 26 -7 36 -15
35 -27 73 -18 116 24 31 31 40 47 40 74 0 19 7 48 15 63 14 28 17 29 99 31 54
1 95 7 114 17 17 9 39 16 48 16 26 0 84 48 84 69 0 20 -14 23 -170 36 -119 11
-110 0 -103 118 5 91 3 107 -15 144 -19 36 -28 43 -74 56 -94 26 -107 28 -176
17 -77 -12 -117 -36 -117 -71 0 -20 6 -25 34 -27 18 -2 38 1 44 7 12 12 57 15
57 4 0 -7 -46 -70 -67 -91 -7 -7 -13 -22 -13 -32 0 -26 -15 -29 -114 -23 -108
7 -114 15 -68 85 74 114 86 149 51 156 -11 2 -27 -19 -52 -67z m371 -39 c19
-14 25 -31 29 -79 3 -34 3 -73 -1 -88 -7 -29 -3 -28 -91 -10 -16 3 -40 8 -52
11 -33 6 -29 35 12 84 19 23 35 52 35 64 0 41 29 48 68 18z m-305 -241 c15 -6
27 -12 27 -15 0 -2 -18 -31 -40 -64 l-41 -61 -75 1 c-56 0 -77 4 -81 14 -5 15
51 134 68 145 12 7 106 -6 142 -20z m357 -37 c0 -14 -12 -19 -23 -8 -9 9 4 35
14 28 5 -3 9 -12 9 -20z m-181 -20 c14 -8 35 -14 47 -14 11 0 29 -9 39 -21 19
-19 19 -21 0 -57 -11 -20 -24 -40 -29 -44 -5 -3 -31 2 -58 13 -27 10 -69 19
-94 19 -55 0 -64 16 -34 65 43 69 61 74 129 39z"/>
<path d="M2287 1341 c-63 -6 -69 -8 -87 -39 -11 -18 -20 -37 -20 -42 0 -11
115 -100 130 -100 25 0 80 53 80 77 0 13 10 37 21 53 12 16 19 36 16 44 -7 17
-16 17 -140 7z"/>
<path d="M2419 1077 c-46 -34 -169 -97 -191 -97 -7 0 -21 -18 -30 -40 l-17
-41 40 -26 c21 -14 39 -29 39 -34 0 -5 9 -13 19 -19 16 -8 26 -5 50 16 17 14
31 35 31 45 0 23 22 61 60 104 54 60 80 125 51 125 -5 0 -28 -15 -52 -33z"/>
<path d="M6290 1026 c-12 -11 -62 -15 -227 -18 -250 -5 -249 -5 -251 -95 0
-32 -4 -92 -7 -133 -7 -94 5 -122 57 -131 20 -3 53 -18 73 -33 31 -24 43 -27
78 -22 23 3 120 10 215 15 125 7 178 14 190 24 10 8 25 17 35 20 15 6 17 22
17 145 l0 138 -31 32 c-17 18 -35 32 -39 32 -4 0 -17 9 -30 20 -27 23 -60 26
-80 6z m-16 -122 c10 -14 16 -30 14 -36 -3 -7 -67 -11 -186 -13 -146 -2 -184
1 -194 12 -9 11 -7 18 6 31 14 14 44 18 164 23 81 3 154 6 163 7 9 1 24 -10
33 -24z m-80 -115 c20 -9 29 -9 40 0 25 21 53 4 61 -36 3 -19 3 -39 -2 -43 -4
-5 -88 -10 -186 -13 -197 -5 -197 -5 -197 63 0 25 4 30 18 27 9 -3 37 -2 62 3
69 12 176 11 204 -1z"/>
</g>
</svg>
