<?xml version="1.0" standalone="no"?><!DOCTYPE svg PUBLIC "-//W3C//DTD SVG 1.1//EN" "http://www.w3.org/Graphics/SVG/1.1/DTD/svg11.dtd"><svg t="1690725386185" class="icon" viewBox="0 0 1024 1024" version="1.1" xmlns="http://www.w3.org/2000/svg" p-id="6474" xmlns:xlink="http://www.w3.org/1999/xlink" width="64" height="64"><path d="M93.866667 593.066667l279.466666-162.133334c42.666667-25.6 98.133333 6.4 87.466667 55.466667V810.666667c10.666667 51.2-42.666667 81.066667-87.466667 55.466666L93.866667 706.133333c-44.8-25.6-44.8-87.466667 0-113.066666z" fill="#11b4da" p-id="6475"></path><path d="M917.333333 601.6c76.8-123.733333 49.066667-251.733333-27.733333-330.666667-44.8-44.8-108.8-74.666667-177.066667-74.666666h-194.133333c-32 0-57.6 25.6-57.6 57.6 0 29.866667 25.6 55.466667 55.466667 55.466666h189.866666c38.4 0 72.533333 14.933333 98.133334 40.533334 46.933333 46.933333 61.866667 130.133333 0 202.666666-17.066667 19.2-53.333333 36.266667-78.933334 36.266667H458.666667v110.933333h275.2c74.666667 0 145.066667-36.266667 183.466666-98.133333z" fill="#11b4da" p-id="6476"></path></svg>