<?xml version="1.0" standalone="no"?><!DOCTYPE svg PUBLIC "-//W3C//DTD SVG 1.1//EN" "http://www.w3.org/Graphics/SVG/1.1/DTD/svg11.dtd"><svg t="1690725985965" class="icon" viewBox="0 0 1024 1024" version="1.1" xmlns="http://www.w3.org/2000/svg" p-id="13044" xmlns:xlink="http://www.w3.org/1999/xlink" width="64" height="64"><path d="M416.766232 0C190.231541 0 5.937861 184.275681 5.937861 410.782372c0 226.532691 184.293681 410.830371 410.830371 410.830371 59.102615 0 116.101279-12.287712 169.422029-36.525143l3.469919-1.575964 0.497988-3.775911a187.681601 187.681601 0 0 1 6.193855-29.177316c20.183527-68.326399 75.93422-119.997188 145.50459-134.84884a192.729483 192.729483 0 0 1 29.603306-3.987906l3.795911-0.211995 1.835957-3.337922c33.011226-60.096591 50.458817-128.352992 50.458817-197.391374C827.548604 184.275681 643.272923 0 416.766232 0z m350.081795 598.267978a206.643157 206.643157 0 0 0-27.871347 4.019906c-74.486254 15.901627-134.180855 71.224331-155.788348 144.362616a200.835293 200.835293 0 0 0-6.107857 27.479356c-50.536816 22.401475-104.455552 33.757209-160.316243 33.757209-218.964868 0-397.106693-178.141825-397.106693-397.104693C19.661539 191.845504 197.801364 13.725678 416.766232 13.725678c218.936869 0 397.058694 178.117825 397.058694 397.056694 0 65.476465-16.23362 130.214948-46.976899 187.485606z" fill="#4A555F" p-id="13045"></path><path d="M416.768232 31.111271c-209.347093 0-379.671101 170.326008-379.671101 379.671101s170.324008 379.621103 379.671101 379.621103c62.250541 0 121.099162-15.063647 172.997945-41.791021 20.701515-70.074358 78.480161-124.209089 150.64247-139.614727 35.523167-57.730647 55.980688-125.617056 55.980688-198.217355 0.002-209.345093-170.322008-379.669102-379.621103-379.669101z m0.002 636.353085c-90.191886 0-167.214081-56.126685-198.169355-135.286829h396.290711c-30.957274 79.160145-107.979469 135.286829-198.121356 135.286829z" fill="#FFD452" p-id="13046"></path><path d="M208.545112 525.329688l3.663914 9.36378c33.177222 84.834012 113.471341 139.650727 204.563206 139.650727 91.061866 0 171.333984-54.816715 204.511207-139.650727l3.663914-9.36378H208.545112z m208.22712 135.286829c-82.004078 0-154.668375-47.37889-187.853597-121.561151H604.57783c-33.185222 74.182261-105.835519 121.561151-187.805598 121.561151z" fill="#4A555F" p-id="13047"></path><path d="M258.039952 556.488957c34.1392 53.614743 93.173816 86.691968 158.73028 86.691968 65.526464 0 124.547081-33.077225 158.678281-86.691968H258.039952z" fill="#F58E6F" p-id="13048"></path><path d="M251.924096 248.722171c-39.735069 0-72.060311 32.327242-72.060312 72.064311h13.725679c0-32.167246 26.171387-58.338633 58.336632-58.338633 32.171246 0 58.342633 26.171387 58.342633 58.338633h13.723678c-0.002-39.737069-32.327242-72.064311-72.06831-72.064311zM581.56237 248.722171c-39.733069 0-72.060311 32.327242-72.060311 72.064311h13.723678c0-32.167246 26.171387-58.338633 58.336633-58.338633 32.171246 0 58.342633 26.171387 58.342632 58.338633h13.723679c0-39.737069-32.327242-72.064311-72.066311-72.064311zM990.232791 791.661445l-0.531987-8.239806-8.005812 2.031952c-6.933837 1.753959-14.051671 1.185972-20.129529-1.497965-14.739655-6.355851-22.019484-23.209456-16.577611-38.365101l16.571611-46.116919-1.731959-2.811934c-38.179105-61.988547-104.397553-98.99568-177.137848-98.99568-114.691312 0-207.999125 93.307813-207.999125 207.997125 0 114.689312 93.307813 207.997125 207.999125 207.997125 114.691312 0 207.995125-93.305813 207.995125-207.997125-0.002-4.669891-0.153996-9.37978-0.45199-14.001672zM782.689656 999.934564c-107.121489 0-194.273447-87.149957-194.273447-194.269447 0-107.121489 87.151957-194.271447 194.273447-194.271447 66.842433 0 127.793005 33.463216 163.708163 89.689898l-14.327664 39.865066c-7.891815 21.965485 2.675937 46.392913 24.003437 55.590697 6.39585 2.821934 13.491684 4.045905 20.809512 3.537917 0.047999 1.861956 0.075998 3.727913 0.075999 5.587869 0 107.119489-87.147957 194.269447-194.269447 194.269447z" fill="#4A555F" p-id="13049"></path><path d="M958.843527 790.257478c-17.349593-7.481825-27.261361-27.649352-20.313524-46.990898l4.421897-12.293712c-28.185339-60.306587-89.413904-102.147606-160.266244-102.147606-97.481715 0-176.835855 79.308141-176.835856 176.837855 0 97.529714 79.35614 176.835855 176.835856 176.835856 97.529714 0 176.835855-79.306141 176.835855-176.835856 0.002-5.199878-0.239994-10.301759-0.677984-15.405639z" fill="#11b4da" p-id="13050" data-spm-anchor-id="a313x.7781069.0.i15" class="selected"></path><path d="M677.96811 721.641087h70.278353v13.725678h-70.278353zM820.686765 721.641087h70.282353v13.725678h-70.282353zM782.703655 844.448208c-39.739069 0-72.066311 32.327242-72.066311 72.064311h13.725679c0-32.167246 26.171387-58.338633 58.342632-58.338632 32.165246 0 58.336633 26.171387 58.336633 58.338632h13.723678c0-39.735069-32.327242-72.064311-72.062311-72.064311zM1015.608197 741.54462l-40.913041-119.05121-42.615002 118.453224c-4.943884 13.751678-2.961931 28.493332 5.443873 40.447052 8.403803 11.95372 21.607494 18.807559 36.219151 18.807559 14.483661 0 27.619353-6.761842 36.033155-18.553565 8.413803-11.787724 10.539753-26.405381 5.831864-40.10306z m-17.009602 32.131247c-5.803864 8.135809-14.863652 12.8017-24.857417 12.8017-10.079764 0-19.19155-4.729889-24.985414-12.977696-5.797864-8.247807-7.169832-18.419568-3.757912-27.905346l29.40331-81.724084 28.221339 82.136074c3.251924 9.449779 1.785958 19.535542-4.023906 27.669352z" fill="#4A555F" p-id="13051"></path><path d="M986.136887 751.672383l-12.115716-35.255174-12.617704 35.075178c-2.007953 5.575869 0.151996 9.899768 1.613962 11.979719 1.461966 2.079951 4.797888 5.569869 10.725749 5.56987 5.869862 0 9.207784-3.441919 10.66775-5.493872 1.465966-2.051952 3.633915-6.321852 1.725959-11.875721z" fill="#DFDFDF" p-id="13052"></path><path d="M427.167988 395.000742v-13.725678c-21.999484 0-39.895065 17.89958-39.895065 39.899065s17.895581 39.899065 39.895065 39.899065v-13.725679c-14.431662 0-26.171387-11.741725-26.171386-26.173386s11.741725-26.173387 26.171386-26.173387zM791.151457 781.013695v-13.727678c-13.115693 0-23.785443 10.66975-23.785442 23.785442 0 13.115693 10.66775 23.785443 23.785442 23.785443v-13.725679a10.071764 10.071764 0 0 1-10.059764-10.059764 10.069764 10.069764 0 0 1 10.059764-10.057764zM262.491848 866.98968c4.641891 1.475965 9.363781 2.901932 14.171668 4.2739l3.995906-14.019672a467.529042 467.529042 0 0 1-13.743678-4.145902l-4.423896 13.891674z m-27.907346-9.83177a485.808614 485.808614 0 0 0 13.881675 5.12988l4.839886-13.749678a467.793036 467.793036 0 0 1-13.463684-4.973883l-5.257877 13.593681z m-27.273361-11.541729a475.200862 475.200862 0 0 0 13.543683 5.98386l5.685866-13.425686a454.755342 454.755342 0 0 1-13.125692-5.797864l-6.103857 13.23969zM155.204362 817.50084a448.44349 448.44349 0 0 0 12.685703 7.65182l7.327828-12.603704a454.155356 454.155356 0 0 1-12.285712-7.407826l-7.727819 12.35971z m25.6114 14.889651a453.729366 453.729366 0 0 0 13.149692 6.82384l6.501848-13.045694a445.515558 445.515558 0 0 1-12.731702-6.607845l-6.919838 12.829699z m-73.702272-49.574838a426.384007 426.384007 0 0 0 11.583728 9.283782l8.921791-11.53173a409.494402 409.494402 0 0 1-11.185738-8.965789l-9.319781 11.213737z m-31.241268-50.964806l-11.507731 8.947791c0.137997 0.177996 3.491918 4.479895 10.103764 11.521729l10.629751-9.977766c-6.087857-6.487848-9.191785-10.453755-9.225784-10.491754z m9.087787 31.115271a374.925213 374.925213 0 0 0 10.891744 10.145762l9.729772-10.859745a357.669617 357.669617 0 0 1-10.473754-9.751772l-10.147762 10.465755z m45.62893 38.009109a443.021617 443.021617 0 0 0 12.171715 8.465802l8.12381-12.103717a437.33175 437.33175 0 0 1-11.773724-8.191808l-8.521801 11.829723z m306.404819 75.126239l0.40799 14.573659a595.60604 595.60604 0 0 0 14.743655-0.595986l-0.767982-14.557659c-4.841887 0.253994-9.633774 0.44799-14.383663 0.579986z m28.743326-1.511964l1.119974 14.535659c4.845886-0.371991 9.747772-0.805981 14.687656-1.301969l-1.461966-14.50566a617.685523 617.685523 0 0 1-14.345664 1.27197z m-44.680953 1.735959a432.249869 432.249869 0 0 1-12.835699-0.147996l-0.341992 14.573658c4.303899 0.099998 8.645797 0.151996 13.027695 0.151996h0.151996l1.579963-0.001999-0.027999-14.577659-1.553964 0.002z m87.623947-6.541847c-4.797888 0.703984-9.561776 1.345968-14.279666 1.927955l1.783959 14.469661c4.831887-0.595986 9.699773-1.253971 14.611657-1.973954l-2.11595-14.423662z m-130.294946 19.505543c4.859886 0.371991 9.769771 0.681984 14.739654 0.927979l0.721983-14.561659c-4.835887-0.237994-9.623774-0.539987-14.351663-0.901979l-1.109974 14.535659z m-58.560628-7.779817c4.783888 0.915979 9.633774 1.771958 14.555659 2.565939l2.325945-14.391662a511.374015 511.374015 0 0 1-14.145668-2.493942l-2.735936 14.319665z m29.171316 4.715889c4.827887 0.639985 9.719772 1.219971 14.673656 1.735959l1.507965-14.49966a517.077881 517.077881 0 0 1-14.265665-1.68796l-1.915956 14.451661z m-58.052639-11.119739c4.721889 1.193972 9.519777 2.333945 14.393663 3.41392l3.151926-14.233667a475.174863 475.174863 0 0 1-13.965673-3.313922l-3.579916 14.133669zM568.958665 942.909901l-12.347711 7.743818c2.679937 4.2779 5.503871 8.479801 8.389804 12.491707l11.835722-8.5158a220.038843 220.038843 0 0 1-7.877815-11.719725z m-13.577682-24.831418l-13.173691 6.245853a261.907862 261.907862 0 0 0 6.81384 13.373687l12.7937-6.997836a248.836168 248.836168 0 0 1-6.433849-12.621704z m-10.65375-26.261385l-13.799677 4.70189a268.033718 268.033718 0 0 0 5.239878 14.05567l13.515683-5.469871a249.818145 249.818145 0 0 1-4.955884-13.287689z m-7.27583-27.025367l-14.393662 2.311946c0.037999 0.235994 0.949978 5.859863 3.449919 15.025648l14.06567-3.83391c-2.271947-8.333805-3.111927-13.453685-3.121927-13.503684z m89.18991 139.068741l-8.275806 12.001719a211.061053 211.061053 0 0 0 12.721702 8.11381l7.393827-12.565706a193.951454 193.951454 0 0 1-11.839723-7.549823z m-52.47677-28.783325a224.83873 224.83873 0 0 0 9.951767 11.317734l10.611751-9.993765a211.383046 211.383046 0 0 1-9.295782-10.575753l-11.267736 9.251784z m20.651516 21.933486c3.677914 3.39992 7.521824 6.713843 11.427732 9.845769l9.121786-11.375734a199.277329 199.277329 0 0 1-10.64975-9.173785l-9.899768 10.70375zM752.336367 65.000477l-8.181808 11.021741c1.665961 1.233971 166.104107 126.691031 139.980719 399.872628l13.66768 1.30797c26.851371-280.805419-143.738631-410.920369-145.466591-412.202339z" fill="#4A555F" p-id="13053"></path></svg>