<?xml version="1.0" standalone="no"?><!DOCTYPE svg PUBLIC "-//W3C//DTD SVG 1.1//EN" "http://www.w3.org/Graphics/SVG/1.1/DTD/svg11.dtd"><svg height="142" node-id="1" sillyvg="true" template-height="142" template-width="161" version="1.1" viewBox="0 0 161 142" width="161" xmlns="http://www.w3.org/2000/svg" xmlns:xlink="http://www.w3.org/1999/xlink"><defs node-id="91"></defs><g node-id="114"><path d="M 105.11 16.50 L 104.45 16.43 L 103.88 16.10 L 103.51 15.56 L 103.39 14.91" fill="#ffffff" fill-rule="nonzero" group-id="22" id="路径_10344" node-id="23" stroke="none" target-height="1.5900002" target-width="1.7200012" target-x="103.39" target-y="14.91"></path></g><g node-id="132"><path d="M 151.64 45.95 L 151.64 135.63 L 151.34 137.22 L 150.50 138.66 L 149.23 139.86 L 147.51 140.82 L 145.56 141.42 L 143.31 141.64 L 18.94 141.64 L 16.69 141.42 L 14.73 140.82 L 13.02 139.86 L 11.74 138.66 L 10.89 137.22 L 10.60 135.63 L 10.60 45.95 L 10.89 44.36 L 11.74 42.91 L 13.02 41.72 L 14.73 40.76 L 16.69 40.16 L 18.94 39.94 L 143.31 39.94 L 145.56 40.16 L 147.52 40.76 L 149.23 41.72 L 150.50 42.91 L 151.35 44.36 L 151.64 45.95 Z" fill="#ffffff" fill-rule="nonzero" group-id="40" id="路径_10361" node-id="41" stroke="none" target-height="101.7" target-width="141.04" target-x="10.6" target-y="39.94"></path></g><g node-id="133"><path d="M 143.31 141.95 L 18.94 141.95 L 16.61 141.71 L 14.58 141.08 L 12.80 140.07 L 11.48 138.82 L 10.60 137.30 L 10.29 135.63 L 10.29 45.94 L 10.60 44.27 L 11.48 42.76 L 12.80 41.50 L 14.58 40.49 L 16.61 39.86 L 18.94 39.63 L 143.31 39.63 L 145.64 39.86 L 147.67 40.49 L 149.44 41.50 L 150.77 42.76 L 151.64 44.27 L 151.95 45.94 L 151.95 135.63 L 151.64 137.31 L 150.77 138.83 L 149.44 140.08 L 147.67 141.09 L 145.64 141.72 L 143.31 141.95 Z M 18.94 40.24 L 16.77 40.45 L 14.89 41.02 L 13.23 41.93 L 12.00 43.06 L 11.19 44.44 L 10.90 45.94 L 10.90 135.63 L 11.19 137.14 L 12.00 138.51 L 13.23 139.64 L 14.89 140.56 L 16.77 141.13 L 18.94 141.34 L 143.31 141.34 L 145.48 141.13 L 147.36 140.56 L 149.01 139.64 L 150.24 138.51 L 151.06 137.14 L 151.34 135.63 L 151.34 45.94 L 151.06 44.44 L 150.24 43.06 L 149.02 41.93 L 147.36 41.02 L 145.48 40.45 L 143.31 40.24 Z" fill="#cccccc" fill-rule="nonzero" group-id="41" id="路径_10362" node-id="42" stroke="none" target-height="102.31999" target-width="141.66" target-x="10.29" target-y="39.63"></path></g><g node-id="134"><path d="M 151.64 45.95 L 151.64 50.67 L 10.62 50.67 L 10.62 45.95 L 10.92 44.36 L 11.76 42.91 L 13.04 41.72 L 14.76 40.76 L 16.72 40.16 L 18.96 39.94 L 143.33 39.94 L 145.58 40.16 L 147.53 40.76 L 149.23 41.72 L 150.50 42.91 L 151.35 44.36 L 151.64 45.95 Z" fill="#ffffff" fill-rule="nonzero" group-id="42" id="路径_10363" node-id="43" stroke="none" target-height="10.73" target-width="141.02" target-x="10.62" target-y="39.94"></path></g><g node-id="135"><path d="M 151.64 50.97 L 10.62 50.97 L 10.41 50.88 L 10.32 50.67 L 10.32 45.94 L 10.63 44.27 L 11.50 42.76 L 12.83 41.50 L 14.61 40.49 L 16.64 39.86 L 18.97 39.63 L 143.33 39.63 L 145.66 39.86 L 147.68 40.49 L 149.46 41.50 L 150.79 42.76 L 151.66 44.27 L 151.97 45.94 L 151.97 50.66 L 151.87 50.88 L 151.64 50.96 Z M 10.92 50.36 L 151.34 50.36 L 151.34 45.94 L 151.06 44.44 L 150.24 43.06 L 149.02 41.93 L 147.36 41.02 L 145.48 40.45 L 143.31 40.24 L 18.94 40.24 L 16.78 40.45 L 14.89 41.02 L 13.24 41.93 L 12.01 43.06 L 11.19 44.44 L 10.91 45.94 Z" fill="#cccccc" fill-rule="nonzero" group-id="43" id="路径_10364" node-id="44" stroke="none" target-height="11.34" target-width="141.65" target-x="10.32" target-y="39.63"></path></g><g node-id="136"><path d="M 34.16 57.27 L 129.49 57.27 L 129.49 66.76 L 34.16 66.76 Z" fill="#ffffff" fill-rule="nonzero" group-id="44" id="矩形_3344" node-id="45" stroke="none" target-height="9.490002" target-width="95.33" target-x="34.16" target-y="57.27"></path></g><g node-id="137"><path d="M 129.49 67.06 L 34.16 67.06 L 33.94 66.98 L 33.86 66.77 L 33.86 57.28 L 33.94 57.07 L 34.16 56.98 L 129.49 56.98 L 129.78 57.28 L 129.78 66.76 L 129.70 66.97 L 129.49 67.06 Z M 34.47 66.45 L 129.19 66.45 L 129.19 57.58 L 34.47 57.58 Z" fill="#231f20" fill-rule="nonzero" group-id="45" id="路径_10365" node-id="46" stroke="none" target-height="10.079998" target-width="95.92" target-x="33.86" target-y="56.98"></path></g><g node-id="138"><path d="M 116.56 57.27 L 129.49 57.27 L 129.49 66.76 L 116.56 66.76 Z" fill="#c09c6e" fill-rule="nonzero" group-id="46" id="矩形_3345" node-id="47" stroke="none" target-height="9.490002" target-width="12.930008" target-x="116.56" target-y="57.27"></path></g><g node-id="139"><path d="M 129.50 67.06 L 116.56 67.06 L 116.35 66.98 L 116.27 66.77 L 116.27 57.28 L 116.35 57.07 L 116.56 56.98 L 129.50 56.98 L 129.79 57.28 L 129.79 66.76 L 129.71 66.98 L 129.50 67.06 Z M 116.87 66.45 L 129.19 66.45 L 129.19 57.58 L 116.88 57.58 Z" fill="#231f20" fill-rule="nonzero" group-id="47" id="路径_10366" node-id="48" stroke="none" target-height="10.079998" target-width="13.519997" target-x="116.27" target-y="56.98"></path></g><g node-id="140"><path d="M 93.48 73.33 L 142.68 73.33 L 142.68 122.53 L 93.48 122.53 Z" fill="#c09c6e" fill-rule="nonzero" group-id="48" id="矩形_3346" node-id="49" stroke="none" target-height="49.199997" target-width="49.19999" target-x="93.48" target-y="73.33"></path></g><g node-id="141"><path d="M 23.72 74.56 L 78.44 74.56 L 78.44 75.78 L 23.72 75.78 Z" fill="#c09c6e" fill-rule="nonzero" group-id="49" id="矩形_3347" node-id="50" stroke="none" target-height="1.2200012" target-width="54.72" target-x="23.72" target-y="74.56"></path></g><g node-id="142"><path d="M 23.72 78.20 L 60.12 78.20 L 60.12 79.42 L 23.72 79.42 Z" fill="#c09c6e" fill-rule="nonzero" group-id="50" id="矩形_3348" node-id="51" stroke="none" target-height="1.2200012" target-width="36.4" target-x="23.72" target-y="78.2"></path></g><g node-id="143"><path d="M 23.72 81.84 L 82.41 81.84 L 82.41 83.06 L 23.72 83.06 Z" fill="#d1d3d4" fill-rule="nonzero" group-id="51" id="矩形_3349" node-id="52" stroke="none" target-height="1.2200012" target-width="58.690002" target-x="23.72" target-y="81.84"></path></g><g node-id="144"><path d="M 23.72 85.49 L 75.31 85.49 L 75.31 86.71 L 23.72 86.71 Z" fill="#d1d3d4" fill-rule="nonzero" group-id="52" id="矩形_3350" node-id="53" stroke="none" target-height="1.2200012" target-width="51.589996" target-x="23.72" target-y="85.49"></path></g><g node-id="145"><path d="M 24.13 89.38 L 31.89 89.38 L 31.89 89.99 L 24.13 89.99 Z" fill="#d1d3d4" fill-rule="nonzero" group-id="53" id="矩形_3351" node-id="54" stroke="none" target-height="0.6100006" target-width="7.76" target-x="24.13" target-y="89.38"></path></g><g node-id="146"><path d="M 34.16 89.38 L 38.45 89.38 L 38.45 89.99 L 34.16 89.99 Z" fill="#d1d3d4" fill-rule="nonzero" group-id="54" id="矩形_3352" node-id="55" stroke="none" target-height="0.6100006" target-width="4.290001" target-x="34.16" target-y="89.38"></path></g><g node-id="147"><path d="M 40.43 89.38 L 44.58 89.38 L 44.58 89.99 L 40.43 89.99 Z" fill="#d1d3d4" fill-rule="nonzero" group-id="55" id="矩形_3353" node-id="56" stroke="none" target-height="0.6100006" target-width="4.1500015" target-x="40.43" target-y="89.38"></path></g><g node-id="148"><path d="M 23.72 96.57 L 66.64 96.57 L 66.64 97.78 L 23.72 97.78 Z" fill="#c09c6e" fill-rule="nonzero" group-id="56" id="矩形_3354" node-id="57" stroke="none" target-height="1.2099991" target-width="42.92" target-x="23.72" target-y="96.57"></path></g><g node-id="149"><path d="M 23.72 100.21 L 75.31 100.21 L 75.31 101.43 L 23.72 101.43 Z" fill="#c09c6e" fill-rule="nonzero" group-id="57" id="矩形_3355" node-id="58" stroke="none" target-height="1.2200012" target-width="51.589996" target-x="23.72" target-y="100.21"></path></g><g node-id="150"><path d="M 23.72 103.85 L 58.22 103.85 L 58.22 105.07 L 23.72 105.07 Z" fill="#d1d3d4" fill-rule="nonzero" group-id="58" id="矩形_3356" node-id="59" stroke="none" target-height="1.2200012" target-width="34.5" target-x="23.72" target-y="103.85"></path></g><g node-id="151"><path d="M 23.72 107.50 L 68.95 107.50 L 68.95 108.72 L 23.72 108.72 Z" fill="#d1d3d4" fill-rule="nonzero" group-id="59" id="矩形_3357" node-id="60" stroke="none" target-height="1.2200012" target-width="45.229996" target-x="23.72" target-y="107.5"></path></g><g node-id="152"><path d="M 24.13 111.39 L 28.01 111.39 L 28.01 112.00 L 24.13 112.00 Z" fill="#d1d3d4" fill-rule="nonzero" group-id="60" id="矩形_3358" node-id="61" stroke="none" target-height="0.6100006" target-width="3.880001" target-x="24.13" target-y="111.39"></path></g><g node-id="153"><path d="M 29.99 111.39 L 38.45 111.39 L 38.45 112.00 L 29.99 112.00 Z" fill="#d1d3d4" fill-rule="nonzero" group-id="61" id="矩形_3359" node-id="62" stroke="none" target-height="0.6100006" target-width="8.460001" target-x="29.99" target-y="111.39"></path></g><g node-id="154"><path d="M 40.43 111.39 L 43.24 111.39 L 43.24 112.00 L 40.43 112.00 Z" fill="#d1d3d4" fill-rule="nonzero" group-id="62" id="矩形_3360" node-id="63" stroke="none" target-height="0.6100006" target-width="2.8100014" target-x="40.43" target-y="111.39"></path></g><g node-id="155"><path d="M 23.72 118.57 L 71.72 118.57 L 71.72 119.79 L 23.72 119.79 Z" fill="#c09c6e" fill-rule="nonzero" group-id="63" id="矩形_3361" node-id="64" stroke="none" target-height="1.2200012" target-width="48" target-x="23.72" target-y="118.57"></path></g><g node-id="156"><path d="M 23.72 122.22 L 78.44 122.22 L 78.44 123.44 L 23.72 123.44 Z" fill="#c09c6e" fill-rule="nonzero" group-id="64" id="矩形_3362" node-id="65" stroke="none" target-height="1.2200012" target-width="54.72" target-x="23.72" target-y="122.22"></path></g><g node-id="157"><path d="M 23.72 125.86 L 61.19 125.86 L 61.19 127.08 L 23.72 127.08 Z" fill="#d1d3d4" fill-rule="nonzero" group-id="65" id="矩形_3363" node-id="66" stroke="none" target-height="1.2200012" target-width="37.47" target-x="23.72" target-y="125.86"></path></g><g node-id="158"><path d="M 23.72 129.50 L 54.59 129.50 L 54.59 130.72 L 23.72 130.72 Z" fill="#d1d3d4" fill-rule="nonzero" group-id="66" id="矩形_3364" node-id="67" stroke="none" target-height="1.2200012" target-width="30.87" target-x="23.72" target-y="129.5"></path></g><g node-id="159"><path d="M 24.13 133.39 L 34.22 133.39 L 34.22 134.00 L 24.13 134.00 Z" fill="#d1d3d4" fill-rule="nonzero" group-id="67" id="矩形_3365" node-id="68" stroke="none" target-height="0.6100006" target-width="10.090002" target-x="24.13" target-y="133.39"></path></g><g node-id="160"><path d="M 36.80 133.39 L 42.51 133.39 L 42.51 134.00 L 36.80 134.00 Z" fill="#d1d3d4" fill-rule="nonzero" group-id="68" id="矩形_3366" node-id="69" stroke="none" target-height="0.6100006" target-width="5.709999" target-x="36.8" target-y="133.39"></path></g><g node-id="161"><path d="M 22.04 45.30 L 21.88 46.08 L 21.45 46.72 L 20.81 47.15 L 20.02 47.31 L 19.23 47.15 L 18.60 46.72 L 18.17 46.08 L 18.01 45.30 L 18.17 44.51 L 18.60 43.87 L 19.23 43.44 L 20.02 43.28 L 20.81 43.44 L 21.45 43.87 L 21.88 44.51 L 22.04 45.30 Z" fill="#c09c6e" fill-rule="nonzero" group-id="69" id="椭圆_182" node-id="70" stroke="none" target-height="4.0300026" target-width="4.0300007" target-x="18.01" target-y="43.28"></path></g><g node-id="162"><path d="M 28.08 45.30 L 27.92 46.08 L 27.49 46.72 L 26.86 47.15 L 26.07 47.31 L 25.28 47.15 L 24.65 46.72 L 24.22 46.08 L 24.06 45.30 L 24.22 44.51 L 24.65 43.87 L 25.28 43.44 L 26.07 43.28 L 26.86 43.44 L 27.49 43.87 L 27.92 44.51 L 28.08 45.30 Z" fill="#e6e7e8" fill-rule="nonzero" group-id="70" id="椭圆_183" node-id="71" stroke="none" target-height="4.0300026" target-width="4.0200005" target-x="24.06" target-y="43.28"></path></g><g node-id="163"><path d="M 34.13 45.30 L 33.97 46.08 L 33.54 46.72 L 32.91 47.15 L 32.12 47.31 L 31.33 47.15 L 30.70 46.72 L 30.27 46.08 L 30.11 45.30 L 30.27 44.51 L 30.70 43.87 L 31.33 43.44 L 32.12 43.28 L 32.91 43.44 L 33.54 43.87 L 33.97 44.51 L 34.13 45.30 Z" fill="#e6e7e8" fill-rule="nonzero" group-id="71" id="椭圆_184" node-id="72" stroke="none" target-height="4.0300026" target-width="4.0200005" target-x="30.11" target-y="43.28"></path></g><g node-id="164"><path d="M 121.49 63.99 L 120.60 63.83 L 119.85 63.40 L 119.29 62.75 L 118.96 61.91 L 118.94 61.01 L 119.22 60.19 L 119.75 59.51 L 120.51 59.03 L 121.38 58.84 L 122.24 58.95 L 123.01 59.33 L 123.64 59.98 L 124.00 60.80 L 124.06 61.67 L 123.83 62.50 L 123.31 63.24 L 122.48 63.80 L 121.49 63.99 Z M 121.49 59.45 L 120.81 59.57 L 120.24 59.90 L 119.81 60.40 L 119.56 61.04 L 119.54 61.72 L 119.75 62.35 L 120.16 62.87 L 120.74 63.24 L 121.41 63.38 L 122.06 63.30 L 122.65 63.00 L 123.13 62.51 L 123.40 61.88 L 123.45 61.22 L 123.27 60.58 L 122.88 60.02 L 122.24 59.60 L 121.49 59.45 Z" fill="#231f20" fill-rule="nonzero" group-id="72" id="路径_10367" node-id="73" stroke="none" target-height="5.1500015" target-width="5.119995" target-x="118.94" target-y="58.84"></path></g><g node-id="165"><path d="M 124.97 65.20 L 124.75 65.11 L 122.88 63.24 L 122.79 63.02 L 122.88 62.81 L 123.09 62.72 L 123.31 62.81 L 125.18 64.68 L 125.25 65.01 L 124.97 65.20 Z" fill="#231f20" fill-rule="nonzero" group-id="73" id="路径_10368" node-id="74" stroke="none" target-height="2.4799957" target-width="2.459999" target-x="122.79" target-y="62.72"></path></g><g node-id="166"><path d="M 110.31 90.33 L 160.37 90.33 L 160.37 127.46 L 110.31 127.46 Z" fill="#ffffff" fill-rule="nonzero" group-id="74" id="矩形_3367" node-id="75" stroke="none" target-height="37.129997" target-width="50.059998" target-x="110.31" target-y="90.33"></path></g><g node-id="167"><path d="M 160.37 127.77 L 110.31 127.77 L 110.10 127.68 L 110.01 127.47 L 110.01 90.33 L 110.10 90.12 L 110.31 90.03 L 160.37 90.03 L 160.67 90.33 L 160.67 127.46 L 160.58 127.68 L 160.37 127.77 Z M 110.62 127.16 L 160.06 127.16 L 160.06 90.63 L 110.62 90.63 Z" fill="#231f20" fill-rule="nonzero" group-id="75" id="路径_10369" node-id="76" stroke="none" target-height="37.739998" target-width="50.659996" target-x="110.01" target-y="90.03"></path></g><g node-id="168"><path d="M 115.67 120.46 L 115.61 120.46 L 113.74 120.07 L 112.13 119.17 L 110.86 117.83 L 110.03 116.11 L 110.06 115.87 L 110.25 115.73 L 110.49 115.76 L 110.64 115.95 L 111.38 117.49 L 112.52 118.70 L 113.97 119.51 L 115.65 119.85 L 115.67 119.85 L 116.52 119.50 L 117.42 118.34 L 118.15 116.77 L 118.89 114.66 L 120.15 110.09 L 121.40 105.56 L 122.11 103.55 L 122.82 102.05 L 123.69 100.88 L 124.57 100.38 L 125.78 100.30 L 126.92 100.70 L 128.01 101.82 L 128.90 103.69 L 130.17 108.55 L 130.87 111.60 L 131.77 114.60 L 132.76 116.64 L 133.93 118.05 L 134.87 118.74 L 135.79 119.08 L 136.73 119.14 L 137.80 118.78 L 138.81 117.98 L 139.78 116.58 L 140.48 114.99 L 141.06 112.92 L 141.51 110.26 L 142.38 104.95 L 143.38 101.29 L 144.69 98.18 L 145.94 96.25 L 147.36 94.79 L 148.57 94.03 L 149.78 93.62 L 150.65 93.53 L 150.73 93.53 L 153.29 93.79 L 155.37 94.59 L 157.06 95.90 L 158.38 97.66 L 159.60 100.23 L 160.66 103.84 L 160.58 104.14 L 160.27 104.21 L 160.05 103.98 L 159.03 100.49 L 157.89 98.03 L 156.66 96.37 L 155.08 95.13 L 153.14 94.38 L 150.71 94.14 L 150.64 94.14 L 149.22 94.39 L 147.87 95.12 L 146.55 96.42 L 145.24 98.45 L 144.00 101.37 L 142.93 105.25 L 142.11 110.34 L 141.63 113.17 L 140.99 115.37 L 140.22 117.05 L 139.16 118.50 L 138.03 119.36 L 136.79 119.74 L 135.72 119.69 L 134.67 119.32 L 133.60 118.58 L 132.28 117.03 L 131.19 114.81 L 130.28 111.78 L 129.57 108.71 L 128.39 104.09 L 127.56 102.27 L 126.59 101.24 L 125.67 100.92 L 124.70 100.99 L 123.98 101.46 L 123.19 102.64 L 122.54 104.14 L 121.89 106.10 L 120.74 110.27 L 119.33 115.24 L 118.53 117.42 L 117.73 118.98 L 117.06 119.83 L 116.38 120.29 L 115.67 120.46 Z" fill="#231f20" fill-rule="nonzero" group-id="76" id="路径_10370" node-id="77" stroke="none" target-height="26.93" target-width="50.630005" target-x="110.03" target-y="93.53"></path></g><g node-id="169"><path d="M 155.71 112.66 L 148.71 112.66 L 148.49 112.57 L 148.40 112.36 L 148.49 112.14 L 148.71 112.05 L 155.71 112.05 L 155.92 112.14 L 156.01 112.36 L 155.92 112.57 L 155.71 112.66 Z" fill="#d1d3d4" fill-rule="nonzero" group-id="77" id="路径_10371" node-id="78" stroke="none" target-height="0.6100006" target-width="7.6100006" target-x="148.4" target-y="112.05"></path></g><g node-id="170"><path d="M 155.71 115.54 L 148.71 115.54 L 148.49 115.45 L 148.40 115.24 L 148.49 115.02 L 148.71 114.93 L 155.71 114.93 L 155.92 115.02 L 156.01 115.24 L 155.92 115.45 L 155.71 115.54 Z" fill="#d1d3d4" fill-rule="nonzero" group-id="78" id="路径_10372" node-id="79" stroke="none" target-height="0.6100006" target-width="7.6100006" target-x="148.4" target-y="114.93"></path></g><g node-id="171"><path d="M 152.21 118.42 L 148.71 118.42 L 148.49 118.33 L 148.40 118.11 L 148.49 117.89 L 148.71 117.81 L 152.21 117.81 L 152.42 117.89 L 152.51 118.11 L 152.42 118.33 L 152.21 118.42 Z" fill="#d1d3d4" fill-rule="nonzero" group-id="79" id="路径_10373" node-id="80" stroke="none" target-height="0.6100006" target-width="4.1100006" target-x="148.4" target-y="117.81"></path></g><g node-id="172"><path d="M 122.38 94.16 L 115.38 94.16 L 115.17 94.07 L 115.08 93.86 L 115.17 93.64 L 115.38 93.55 L 122.38 93.55 L 122.59 93.64 L 122.68 93.85 L 122.38 94.15 Z" fill="#d1d3d4" fill-rule="nonzero" group-id="80" id="路径_10374" node-id="81" stroke="none" target-height="0.6100006" target-width="7.5999985" target-x="115.08" target-y="93.55"></path></g><g node-id="173"><path d="M 122.38 97.08 L 115.38 97.08 L 115.17 96.99 L 115.08 96.77 L 115.17 96.56 L 115.38 96.47 L 122.38 96.47 L 122.68 96.77 L 122.59 96.99 L 122.38 97.08 Z" fill="#d1d3d4" fill-rule="nonzero" group-id="81" id="路径_10375" node-id="82" stroke="none" target-height="0.6100006" target-width="7.5999985" target-x="115.08" target-y="96.47"></path></g><g node-id="174"><path d="M 118.88 99.94 L 115.38 99.94 L 115.17 99.85 L 115.08 99.63 L 115.17 99.42 L 115.38 99.33 L 118.88 99.33 L 119.09 99.42 L 119.18 99.63 L 119.09 99.85 L 118.88 99.94 Z" fill="#d1d3d4" fill-rule="nonzero" group-id="82" id="路径_10376" node-id="83" stroke="none" target-height="0.6100006" target-width="4.0999985" target-x="115.08" target-y="99.33"></path></g><g node-id="175"><path d="M 20.37 94.68 L 26.44 97.79 L 19.06 112.21 L 13.00 109.11 Z" fill="#231f20" fill-rule="nonzero" group-id="83" id="矩形_3368" node-id="84" stroke="none" target-height="17.529999" target-width="13.440001" target-x="13" target-y="94.68"></path></g><g node-id="176"><path d="M 19.06 112.52 L 18.93 112.48 L 12.83 109.38 L 12.67 109.21 L 12.69 108.97 L 20.07 94.55 L 20.25 94.39 L 20.48 94.39 L 26.58 97.49 L 26.73 97.67 L 26.71 97.90 L 19.35 112.35 L 19.17 112.49 L 19.06 112.52 Z M 13.40 108.98 L 18.93 111.81 L 26.05 97.92 L 20.53 95.09 Z" fill="#231f20" fill-rule="nonzero" group-id="84" id="路径_10377" node-id="85" stroke="none" target-height="18.129997" target-width="14.059999" target-x="12.67" target-y="94.39"></path></g><g node-id="177"><path d="M 16.27 105.62 L 19.97 107.51 L 20.75 108.13 L 21.21 108.96 L 21.33 109.90 L 21.06 110.86 L 9.27 133.91 L 8.65 134.69 L 7.82 135.14 L 6.88 135.26 L 5.93 134.99 L 2.22 133.10 L 1.44 132.48 L 0.98 131.65 L 0.87 130.71 L 1.14 129.75 L 12.92 106.70 L 13.54 105.92 L 14.37 105.46 L 15.31 105.35 L 16.27 105.62 Z" fill="#ffffff" fill-rule="nonzero" group-id="85" id="矩形_3369" node-id="86" stroke="none" target-height="29.909996" target-width="20.46" target-x="0.87" target-y="105.35"></path></g><g node-id="178"><path d="M 7.48 135.92 L 6.66 135.72 L 1.21 132.94 L 0.65 132.49 L 0.31 131.89 L 0.23 131.20 L 0.42 130.50 L 13.09 105.71 L 13.55 105.15 L 14.15 104.81 L 14.83 104.73 L 15.53 104.92 L 20.97 107.70 L 20.97 107.70 L 21.54 108.15 L 21.87 108.75 L 21.96 109.44 L 21.77 110.14 L 9.11 134.93 L 8.43 135.65 L 7.48 135.92 Z M 14.71 105.31 L 14.34 105.38 L 13.93 105.61 L 13.63 105.98 L 0.96 130.77 L 0.83 131.24 L 0.89 131.69 L 1.11 132.10 L 1.49 132.40 L 6.94 135.18 L 7.40 135.31 L 7.86 135.25 L 8.26 135.03 L 8.56 134.66 L 21.24 109.88 L 21.36 109.41 L 21.31 108.96 L 21.08 108.56 L 20.71 108.25 L 15.26 105.47 L 14.71 105.31 Z" fill="#231f20" fill-rule="nonzero" group-id="86" id="路径_10378" node-id="87" stroke="none" target-height="31.189995" target-width="21.73" target-x="0.23" target-y="104.73"></path></g><g node-id="179"><path d="M 37.37 68.05 L 35.20 67.12 L 33.00 66.50 L 30.75 66.18 L 28.48 66.15 L 26.25 66.41 L 24.04 66.96 L 21.92 67.80 L 19.93 68.91 L 18.03 70.31 L 16.34 71.96 L 14.93 73.75 L 13.77 75.71 L 12.88 77.80 L 12.26 79.96 L 11.93 82.21 L 11.89 84.48 L 12.15 86.75 L 12.72 89.04 L 13.60 91.23 L 14.72 93.23 L 16.09 95.04 L 17.68 96.67 L 19.44 98.06 L 21.39 99.23 L 23.48 100.13 L 25.67 100.76 L 28.01 101.10 L 30.37 101.13 L 32.64 100.86 L 34.84 100.29 L 36.95 99.44 L 38.91 98.35 L 40.73 96.99 L 42.37 95.41 L 43.78 93.62 L 45.00 91.59 L 46.18 88.61 L 46.80 85.64 L 46.88 82.64 L 46.44 79.66 L 45.54 76.86 L 44.14 74.20 L 42.32 71.81 L 40.07 69.77 L 37.37 68.05 Z M 23.46 95.25 L 21.25 93.82 L 19.45 92.08 L 18.01 90.00 L 17.00 87.68 L 16.46 85.23 L 16.40 82.60 L 16.87 80.01 L 17.79 77.68 L 19.17 75.56 L 20.92 73.73 L 22.97 72.30 L 25.38 71.23 L 27.96 70.69 L 30.46 70.64 L 32.95 71.10 L 35.31 72.02 L 37.42 73.37 L 39.32 75.19 L 40.82 77.35 L 41.81 79.65 L 42.35 82.13 L 42.40 84.65 L 41.96 87.12 L 41.01 89.58 L 39.73 91.60 L 38.20 93.27 L 36.43 94.63 L 34.44 95.67 L 32.35 96.34 L 30.13 96.66 L 27.89 96.60 L 25.68 96.14 L 23.46 95.25 Z" fill="#ffffff" fill-rule="nonzero" group-id="87" id="路径_10379" node-id="88" stroke="none" target-height="34.979996" target-width="34.99" target-x="11.89" target-y="66.15"></path></g><path d="M 29.38 101.47 L 26.29 101.21 L 23.44 100.48 L 20.77 99.29 L 18.32 97.68 L 16.21 95.74 L 14.40 93.44 L 13.00 90.88 L 12.03 88.09 L 11.51 85.03 L 11.53 81.93 L 12.04 79.03 L 13.02 76.27 L 14.43 73.71 L 16.20 71.46 L 18.36 69.47 L 20.80 67.87 L 23.50 66.69 L 26.51 65.94 L 29.60 65.72 L 32.54 65.99 L 35.36 66.75 L 38.02 67.96 L 40.41 69.56 L 42.55 71.55 L 44.34 73.86 L 45.73 76.46 L 46.72 79.40 L 47.18 82.47 L 47.13 85.41 L 46.59 88.29 L 45.59 91.04 L 44.19 93.54 L 42.37 95.83 L 40.21 97.80 L 37.72 99.38 L 34.87 100.60 L 32.16 101.25 L 29.38 101.47 Z M 29.42 66.43 L 26.73 66.64 L 24.10 67.27 L 21.37 68.44 L 18.99 69.95 L 16.91 71.83 L 15.17 74.03 L 13.83 76.43 L 12.87 79.06 L 12.35 81.81 L 12.30 84.63 L 12.74 87.57 L 13.69 90.39 L 15.01 92.88 L 16.72 95.10 L 18.77 97.01 L 21.06 98.53 L 23.61 99.70 L 26.31 100.43 L 29.12 100.70 L 32.08 100.49 L 34.96 99.78 L 37.56 98.65 L 39.90 97.12 L 41.97 95.23 L 43.67 93.07 L 45.03 90.62 L 45.97 87.98 L 46.46 85.20 L 46.49 82.23 L 46.00 79.30 L 45.08 76.63 L 43.74 74.18 L 42.02 71.97 L 40.00 70.10 L 37.66 68.55 L 35.11 67.40 L 32.38 66.69 L 29.42 66.43 Z M 29.38 96.99 L 27.28 96.82 L 25.27 96.33 L 23.33 95.53 L 23.33 95.53 L 21.42 94.34 L 19.80 92.93 L 18.45 91.29 L 17.37 89.45 L 16.61 87.50 L 16.16 85.42 L 16.04 83.30 L 16.27 81.17 L 16.87 79.00 L 17.82 76.96 L 19.03 75.19 L 20.51 73.66 L 22.20 72.37 L 24.05 71.39 L 26.06 70.69 L 28.15 70.32 L 30.30 70.30 L 32.52 70.64 L 34.66 71.35 L 36.56 72.35 L 38.26 73.63 L 39.73 75.17 L 40.92 76.88 L 41.85 78.80 L 42.46 80.84 L 42.73 82.96 L 42.66 85.21 L 42.20 87.42 L 41.44 89.42 L 40.36 91.26 L 39.01 92.90 L 37.45 94.29 L 35.65 95.43 L 33.70 96.28 L 31.62 96.80 L 29.38 96.99 Z M 23.61 94.99 L 25.78 95.85 L 27.94 96.30 L 30.12 96.36 L 32.29 96.05 L 34.33 95.39 L 36.26 94.37 L 38.00 93.04 L 39.48 91.41 L 40.73 89.44 L 41.60 87.28 L 42.05 85.12 L 42.11 82.93 L 41.79 80.77 L 41.13 78.73 L 40.12 76.79 L 38.79 75.06 L 37.16 73.57 L 35.19 72.33 L 33.03 71.46 L 30.87 71.01 L 28.68 70.95 L 26.52 71.26 L 24.48 71.92 L 22.54 72.94 L 20.81 74.26 L 19.32 75.89 L 18.07 77.86 L 17.21 80.03 L 16.76 82.19 L 16.70 84.37 L 17.01 86.54 L 17.67 88.58 L 18.69 90.52 L 20.02 92.25 L 21.65 93.74 L 23.61 94.99 Z" fill="#231f20" fill-rule="nonzero" group-id="88" id="路径_10380" node-id="89" stroke="none" target-height="35.75" target-width="35.67" target-x="11.51" target-y="65.72"></path></svg>